<mxfile host="app.diagrams.net" agent="Mozilla/5.0 (Windows NT 10.0; Win64; x64; rv:131.0) Gecko/20100101 Firefox/131.0" version="24.7.17">
  <diagram name="Seite-1" id="WBUTjarcn3_DnFrtPYEU">
    <mxGraphModel dx="753" dy="528" grid="1" gridSize="10" guides="1" tooltips="1" connect="1" arrows="1" fold="1" page="1" pageScale="1" pageWidth="827" pageHeight="1169" math="0" shadow="0">
      <root>
        <mxCell id="0" />
        <mxCell id="1" parent="0" />
        <mxCell id="oJLbj3j2jXlrkEe_1PLv-10" style="edgeStyle=orthogonalEdgeStyle;rounded=0;orthogonalLoop=1;jettySize=auto;html=1;exitX=0.5;exitY=1;exitDx=0;exitDy=0;entryX=0.5;entryY=0;entryDx=0;entryDy=0;" edge="1" parent="1" source="oJLbj3j2jXlrkEe_1PLv-1" target="oJLbj3j2jXlrkEe_1PLv-2">
          <mxGeometry relative="1" as="geometry" />
        </mxCell>
        <mxCell id="oJLbj3j2jXlrkEe_1PLv-1" value="QTimer trigger" style="rounded=1;whiteSpace=wrap;html=1;" vertex="1" parent="1">
          <mxGeometry x="280" y="440" width="120" height="20" as="geometry" />
        </mxCell>
        <mxCell id="oJLbj3j2jXlrkEe_1PLv-9" style="edgeStyle=orthogonalEdgeStyle;rounded=0;orthogonalLoop=1;jettySize=auto;html=1;exitX=0.5;exitY=1;exitDx=0;exitDy=0;entryX=0.5;entryY=0;entryDx=0;entryDy=0;" edge="1" parent="1" source="oJLbj3j2jXlrkEe_1PLv-2" target="oJLbj3j2jXlrkEe_1PLv-3">
          <mxGeometry relative="1" as="geometry" />
        </mxCell>
        <mxCell id="oJLbj3j2jXlrkEe_1PLv-2" value="Check object changes" style="rounded=1;whiteSpace=wrap;html=1;" vertex="1" parent="1">
          <mxGeometry x="280" y="480" width="120" height="40" as="geometry" />
        </mxCell>
        <mxCell id="oJLbj3j2jXlrkEe_1PLv-8" style="edgeStyle=orthogonalEdgeStyle;rounded=0;orthogonalLoop=1;jettySize=auto;html=1;exitX=0.5;exitY=1;exitDx=0;exitDy=0;entryX=0.5;entryY=0;entryDx=0;entryDy=0;" edge="1" parent="1" source="oJLbj3j2jXlrkEe_1PLv-3" target="oJLbj3j2jXlrkEe_1PLv-4">
          <mxGeometry relative="1" as="geometry" />
        </mxCell>
        <mxCell id="oJLbj3j2jXlrkEe_1PLv-3" value="Process events" style="rounded=1;whiteSpace=wrap;html=1;" vertex="1" parent="1">
          <mxGeometry x="280" y="560" width="120" height="20" as="geometry" />
        </mxCell>
        <mxCell id="oJLbj3j2jXlrkEe_1PLv-7" style="edgeStyle=orthogonalEdgeStyle;rounded=0;orthogonalLoop=1;jettySize=auto;html=1;exitX=0.5;exitY=1;exitDx=0;exitDy=0;entryX=0.5;entryY=0;entryDx=0;entryDy=0;" edge="1" parent="1" source="oJLbj3j2jXlrkEe_1PLv-4" target="oJLbj3j2jXlrkEe_1PLv-6">
          <mxGeometry relative="1" as="geometry" />
        </mxCell>
        <mxCell id="oJLbj3j2jXlrkEe_1PLv-4" value="Update objects" style="rounded=1;whiteSpace=wrap;html=1;" vertex="1" parent="1">
          <mxGeometry x="280" y="600" width="120" height="20" as="geometry" />
        </mxCell>
        <mxCell id="oJLbj3j2jXlrkEe_1PLv-11" style="edgeStyle=orthogonalEdgeStyle;rounded=0;orthogonalLoop=1;jettySize=auto;html=1;exitX=0.5;exitY=1;exitDx=0;exitDy=0;entryX=0.5;entryY=0;entryDx=0;entryDy=0;" edge="1" parent="1" source="oJLbj3j2jXlrkEe_1PLv-6" target="oJLbj3j2jXlrkEe_1PLv-1">
          <mxGeometry relative="1" as="geometry">
            <Array as="points">
              <mxPoint x="340" y="680" />
              <mxPoint x="260" y="680" />
              <mxPoint x="260" y="420" />
              <mxPoint x="340" y="420" />
            </Array>
          </mxGeometry>
        </mxCell>
        <mxCell id="oJLbj3j2jXlrkEe_1PLv-6" value="Draw objects" style="rounded=1;whiteSpace=wrap;html=1;" vertex="1" parent="1">
          <mxGeometry x="280" y="640" width="120" height="20" as="geometry" />
        </mxCell>
      </root>
    </mxGraphModel>
  </diagram>
</mxfile>
